<mxfile host="app.diagrams.net" modified="2021-12-03T12:49:49.288Z" agent="5.0 (Windows NT 10.0; Win64; x64) AppleWebKit/537.36 (KHTML, like Gecko) Chrome/96.0.4664.45 Safari/537.36" etag="FfPqFz1pz8jruzv8q_1z" version="15.8.9" type="github">
  <diagram id="vUYlsW6aZPHzwdUkaKv-" name="Page-1">
    <mxGraphModel dx="1422" dy="705" grid="1" gridSize="10" guides="1" tooltips="1" connect="1" arrows="1" fold="1" page="1" pageScale="1" pageWidth="850" pageHeight="1100" math="0" shadow="0">
      <root>
        <mxCell id="0" />
        <mxCell id="1" parent="0" />
        <mxCell id="eecyqPWHS8TlKxeawjnO-1" value="" style="rounded=0;whiteSpace=wrap;html=1;" vertex="1" parent="1">
          <mxGeometry x="240" y="80" width="360" height="280" as="geometry" />
        </mxCell>
        <mxCell id="eecyqPWHS8TlKxeawjnO-3" value="" style="rounded=0;whiteSpace=wrap;html=1;" vertex="1" parent="1">
          <mxGeometry x="250" y="90" width="340" height="260" as="geometry" />
        </mxCell>
        <mxCell id="eecyqPWHS8TlKxeawjnO-4" value="" style="endArrow=none;html=1;rounded=0;entryX=0.003;entryY=0.115;entryDx=0;entryDy=0;entryPerimeter=0;" edge="1" parent="1" target="eecyqPWHS8TlKxeawjnO-3">
          <mxGeometry width="50" height="50" relative="1" as="geometry">
            <mxPoint x="590" y="120" as="sourcePoint" />
            <mxPoint x="450" y="340" as="targetPoint" />
          </mxGeometry>
        </mxCell>
        <mxCell id="eecyqPWHS8TlKxeawjnO-5" value="Tambah" style="text;html=1;align=center;verticalAlign=middle;resizable=0;points=[];autosize=1;strokeColor=none;fillColor=none;fontSize=20;" vertex="1" parent="1">
          <mxGeometry x="375" y="90" width="90" height="30" as="geometry" />
        </mxCell>
      </root>
    </mxGraphModel>
  </diagram>
</mxfile>
